<?xml version="1.0" encoding="utf-8"?>
<!-- Generator: Adobe Illustrator 18.0.0, SVG Export Plug-In . SVG Version: 6.00 Build 0)  -->
<!DOCTYPE svg PUBLIC "-//W3C//DTD SVG 1.1//EN" "http://www.w3.org/Graphics/SVG/1.1/DTD/svg11.dtd">
<svg version="1.1" id="Ebene_1" xmlns="http://www.w3.org/2000/svg" xmlns:xlink="http://www.w3.org/1999/xlink" x="0px" y="0px"
	 viewBox="0 0 64 64" enable-background="new 0 0 64 64" xml:space="preserve">
<g>
	<path fill="#26AAD5" d="M55.7,0H8.3C3.8,0,0,3.9,0,8.7v35.6c0,4.8,3.8,8.7,8.3,8.7h5.1V64h0.1l11.7-11.1h30.4
		c4.6,0,8.3-3.9,8.3-8.7V8.7C64,3.9,60.2,0,55.7,0z"/>
</g>
<g opacity="0.33">
	<path fill="#010202" d="M36.5,28.5c1.3,1.1,2,2.9,2,5.1c0,3.5-1.3,6-3.9,7.4s-6.3,2.1-11.1,2.1H12v-32h10.2c4.9,0,8.6,0.6,11.1,1.9
		c2.6,1.3,3.8,3.4,3.8,6.4c0,1.9-0.6,3.4-1.7,4.5c-1.1,1.1-2.5,1.8-4.2,2.3C33.4,26.6,35.1,27.4,36.5,28.5z M21.7,17.6v5.9h1.6
		c1.5,0,2.5-0.2,3.1-0.7c0.6-0.5,0.9-1.3,0.9-2.4c0-0.9-0.3-1.6-1-2.1c-0.6-0.4-1.7-0.7-3.3-0.7H21.7z M27.3,35.7
		c0.8-0.5,1.3-1.4,1.3-2.7c0-1.2-0.4-2.1-1.2-2.7c-0.8-0.6-1.9-0.8-3.5-0.8h-2.3v7h1.9C25.2,36.4,26.4,36.2,27.3,35.7z"/>
	<path fill="#010202" d="M43,41.9c-1.4-1.4-2-3.4-2-5.9V8.9L50.2,8v27.6c0,0.8,0.4,1.2,1.1,1.2c0.3,0,0.7-0.1,1-0.2l1.6,6.5
		c-1.5,0.6-3.2,0.8-5.2,0.8C46.3,44,44.3,43.3,43,41.9z"/>
</g>
<g>
	<path fill="#FFFFFF" d="M34.5,28.5c1.3,1.1,2,2.9,2,5.1c0,3.5-1.3,6-3.9,7.4s-6.3,2.1-11.1,2.1H10v-32h10.2c4.9,0,8.6,0.6,11.1,1.9
		c2.6,1.3,3.8,3.4,3.8,6.4c0,1.9-0.6,3.4-1.7,4.5c-1.1,1.1-2.5,1.8-4.2,2.3C31.4,26.6,33.1,27.4,34.5,28.5z M19.7,17.6v5.9h1.6
		c1.5,0,2.5-0.2,3.1-0.7c0.6-0.5,0.9-1.3,0.9-2.4c0-0.9-0.3-1.6-1-2.1c-0.6-0.4-1.7-0.7-3.3-0.7H19.7z M25.3,35.7
		c0.8-0.5,1.3-1.4,1.3-2.7c0-1.2-0.4-2.1-1.2-2.7c-0.8-0.6-1.9-0.8-3.5-0.8h-2.3v7h1.9C23.2,36.4,24.4,36.2,25.3,35.7z"/>
	<path fill="#FFFFFF" d="M41,41.9c-1.4-1.4-2-3.4-2-5.9V8.9L48.2,8v27.6c0,0.8,0.4,1.2,1.1,1.2c0.3,0,0.7-0.1,1-0.2l1.6,6.5
		c-1.5,0.6-3.2,0.8-5.2,0.8C44.3,44,42.3,43.3,41,41.9z"/>
</g>
</svg>
