<?xml version="1.0" encoding="utf-8"?>
<!-- Generator: Adobe Illustrator 18.0.0, SVG Export Plug-In . SVG Version: 6.00 Build 0)  -->
<!DOCTYPE svg PUBLIC "-//W3C//DTD SVG 1.1//EN" "http://www.w3.org/Graphics/SVG/1.1/DTD/svg11.dtd">
<svg version="1.1" id="edit" xmlns="http://www.w3.org/2000/svg" xmlns:xlink="http://www.w3.org/1999/xlink" x="0px" y="0px"
	 viewBox="0 0 64 64" enable-background="new 0 0 64 64" xml:space="preserve">
<path id="pencil" d="M60.6,3.4C58.3,1.2,55.4,0,52.2,0c-3.1,0-6.1,1.2-8.3,3.4L8.6,38.6c-0.2,0.2-0.4,0.5-0.5,0.7l-8,22
	C-0.1,62,0,62.8,0.5,63.4C0.9,63.8,1.5,64,2,64c0.2,0,0.4,0,0.6-0.1l19.9-6.1c0.3-0.1,0.6-0.3,0.8-0.5l37.2-37.2
	c2.2-2.2,3.4-5.2,3.4-8.3C64,8.6,62.8,5.7,60.6,3.4L60.6,3.4z M20.2,54.3l-7.4,2.3c-0.4-1.3-1.1-2.4-2-3.3C9.9,52.5,9,51.9,8,51.4
	l3.4-9.4H16v4c0,1.1,0.9,2,2,2h3.5L20.2,54.3z M49.6,25.3L25.3,49.7l0.7-3.3c0.1-0.6,0-1.2-0.4-1.7c-0.4-0.5-1-0.7-1.6-0.7h-4v-4
	c0-1.1-0.9-2-2-2h-3.2l23.8-23.7l0,0c1.5-1.5,3.4-2.3,5.5-2.3c2.1,0,4,0.8,5.5,2.3c1.5,1.5,2.3,3.4,2.3,5.5
	C51.9,21.9,51.1,23.9,49.6,25.3L49.6,25.3z M57.7,17.2l-1.9,1.9c-0.2-2.9-1.4-5.5-3.4-7.6c-2-2-4.7-3.2-7.6-3.4l1.9-1.9v0
	C48.2,4.8,50.2,4,52.2,4c2.1,0,4,0.8,5.5,2.3c1.5,1.5,2.3,3.4,2.3,5.5C60,13.8,59.2,15.8,57.7,17.2L57.7,17.2z M44.6,16.6l-20,20
	c-0.8,0.8-0.8,2,0,2.8C25,39.8,25.5,40,26,40c0.5,0,1-0.2,1.4-0.6l20-20c0.8-0.8,0.8-2.1,0-2.8C46.6,15.8,45.4,15.8,44.6,16.6
	L44.6,16.6z M44.6,16.6"/>
</svg>
