<?xml version="1.0" encoding="utf-8"?>
<!-- Generator: Adobe Illustrator 18.0.0, SVG Export Plug-In . SVG Version: 6.00 Build 0)  -->
<!DOCTYPE svg PUBLIC "-//W3C//DTD SVG 1.1//EN" "http://www.w3.org/Graphics/SVG/1.1/DTD/svg11.dtd">
<svg version="1.1" id="Ebene_1" xmlns="http://www.w3.org/2000/svg" xmlns:xlink="http://www.w3.org/1999/xlink" x="0px" y="0px"
	 viewBox="0 0 64 64" enable-background="new 0 0 64 64" xml:space="preserve">
<g>
	<path d="M55.3,27c-4,0-7.3,3.5-8.4,8.2L34,31.7c-0.3-4.1-2.9-7.3-6.1-7.3c-1.1,0-2.1,0.4-3,1l-5.9-6.9c1.2-2,1.9-4.4,1.9-7.1
		C21,5.1,17.1,0,12.2,0C7.4,0,3.5,5.1,3.5,11.4c0,6.3,3.9,11.4,8.7,11.4c1.5,0,2.9-0.5,4.1-1.3l6.2,7.3c-0.5,1.1-0.7,2.4-0.7,3.7
		c0,1,0.2,2,0.4,3l-7.9,8.4c-1.5-1.6-3.5-2.6-5.6-2.6C3.9,41.2,0,46.3,0,52.6C0,58.9,3.9,64,8.7,64c4.8,0,8.7-5.1,8.7-11.4
		c0-1.9-0.4-3.6-1-5.2l7.9-8.4c1,0.9,2.2,1.4,3.5,1.4c2.3,0,4.4-1.7,5.4-4.2l13.3,3.6c0.5,5.6,4.2,10,8.7,10c4.8,0,8.7-5.1,8.7-11.4
		C64,32.1,60.1,27,55.3,27L55.3,27z M12.2,16c-1.9,0-3.5-2-3.5-4.6s1.6-4.6,3.5-4.6c1.9,0,3.5,2,3.5,4.6S14.2,16,12.2,16L12.2,16z
		 M8.7,57.2c-1.9,0-3.5-2-3.5-4.6c0-2.5,1.6-4.6,3.5-4.6s3.5,2,3.5,4.6C12.2,55.1,10.7,57.2,8.7,57.2L8.7,57.2z M27.9,35.5
		c-1.3,0-2.3-1.4-2.3-3c0-1.7,1-3,2.3-3c1.3,0,2.3,1.4,2.3,3C30.2,34.1,29.2,35.5,27.9,35.5L27.9,35.5z M55.3,43
		c-1.9,0-3.5-2-3.5-4.6s1.6-4.6,3.5-4.6s3.5,2,3.5,4.6S57.2,43,55.3,43L55.3,43z M55.3,43"/>
</g>
</svg>
