<?xml version="1.0" encoding="utf-8"?>
<!-- Generator: Adobe Illustrator 18.0.0, SVG Export Plug-In . SVG Version: 6.00 Build 0)  -->
<!DOCTYPE svg PUBLIC "-//W3C//DTD SVG 1.1//EN" "http://www.w3.org/Graphics/SVG/1.1/DTD/svg11.dtd">
<svg version="1.1" id="Ebene_1" xmlns="http://www.w3.org/2000/svg" xmlns:xlink="http://www.w3.org/1999/xlink" x="0px" y="0px"
	 viewBox="0 0 64 64" enable-background="new 0 0 64 64" xml:space="preserve">
<g>
	<path d="M37.8,43.4c3.9-2.1,6.9-4.9,9.2-8.5c2.2-3.6,3.4-7.5,3.4-11.7s-1.1-8.1-3.4-11.7c-2.2-3.6-5.3-6.4-9.2-8.5
		C33.9,1,29.7,0,25.1,0c-4.5,0-8.8,1-12.6,3.1C8.6,5.2,5.6,8,3.4,11.6C1.1,15.2,0,19.1,0,23.3c0,3.6,0.8,7,2.5,10.2
		c1.7,3.2,4,5.9,7,8c-0.2,0.7-0.5,1.4-0.7,2c-0.3,0.6-0.5,1.2-0.9,1.7c-0.3,0.6-0.6,1-0.8,1.3c-0.2,0.3-0.5,0.8-0.9,1.3
		s-0.7,1-0.8,1.1c0,0,0,0-0.1,0.2C5.1,49.4,5,49.5,5,49.5c0,0-0.1,0.1-0.1,0.2C4.8,49.9,4.7,50,4.7,50l-0.1,0.2
		c0,0.1-0.1,0.2-0.1,0.3c0,0.1,0,0.2,0,0.3c0,0.1,0,0.2,0,0.3c0,0.4,0.2,0.7,0.4,1c0.2,0.2,0.5,0.4,0.7,0.4h0.1
		c1.2-0.2,2.2-0.5,3.1-0.7c3.7-1.2,7-3.2,9.9-5.8c2.1,0.5,4.2,0.7,6.3,0.7C29.7,46.5,33.9,45.5,37.8,43.4L37.8,43.4z M17.8,39.6
		L16.2,41c-0.7,0.6-1.4,1.2-2.2,1.8l1.2-3.8l-3.5-2.5c-2.3-1.7-4.1-3.7-5.3-6c-1.3-2.3-1.9-4.7-1.9-7.2c0-3.1,0.9-6,2.8-8.7
		c1.9-2.7,4.4-4.8,7.6-6.4c3.2-1.6,6.6-2.4,10.2-2.4c3.6,0,7,0.8,10.2,2.4c3.2,1.6,5.7,3.7,7.6,6.4c1.9,2.7,2.8,5.6,2.8,8.7
		s-0.9,6-2.8,8.7c-1.9,2.7-4.4,4.8-7.6,6.4c-3.2,1.6-6.6,2.4-10.2,2.4c-1.8,0-3.6-0.2-5.5-0.6L17.8,39.6z M17.8,39.6"/>
	<path d="M61.5,45.1c1.7-3.2,2.5-6.6,2.5-10.2c0-3.7-0.9-7.2-2.7-10.5c-1.8-3.2-4.2-5.9-7.3-8.1c0.5,2.3,0.8,4.6,0.8,6.9
		c0,4.1-0.8,7.9-2.4,11.5c-1.6,3.6-3.9,6.8-6.9,9.6c-2.8,2.5-5.9,4.5-9.4,5.9c-3.5,1.4-7.2,2-11,2c-0.7,0-1.8-0.1-3.1-0.2
		c4.8,4,10.4,6,16.9,6c2,0,4.1-0.2,6.3-0.7c3,2.7,6.3,4.6,9.9,5.8c0.9,0.3,1.9,0.5,3.1,0.7c0.3,0,0.5-0.1,0.8-0.3
		c0.2-0.2,0.4-0.6,0.5-1c0-0.2,0-0.3,0-0.3c0,0,0-0.1,0-0.3c0-0.2-0.1-0.3-0.1-0.3l-0.1-0.2c0-0.1-0.1-0.1-0.1-0.2
		c-0.1-0.1-0.1-0.2-0.1-0.2c0,0-0.1-0.1-0.2-0.2c-0.1-0.1-0.1-0.2-0.1-0.2c-0.1-0.2-0.4-0.6-0.8-1.1c-0.4-0.6-0.7-1-0.9-1.3
		c-0.2-0.3-0.5-0.8-0.8-1.3c-0.3-0.6-0.6-1.1-0.9-1.8c-0.3-0.6-0.5-1.3-0.7-2C57.5,51,59.8,48.3,61.5,45.1L61.5,45.1z M61.5,45.1"/>
</g>
</svg>
